<svg width="79" height="14" viewBox="0 0 79 14" fill="none" xmlns="http://www.w3.org/2000/svg">
<g clip-path="url(#clip0_265_125)">
<path d="M58.3754 0L50.5621 10.8665L42.7487 0H39.3408L49.4075 14H51.7167L61.7833 0H58.3754Z" fill="white"/>
<path d="M68.1688 0H65.859L55.793 14H59.2009L67.0142 3.13355L74.8276 14H78.2355L68.1688 0Z" fill="white"/>
<path d="M38.0578 6.68468C38.4929 6.07039 38.7544 5.27704 38.7544 4.402V3.78182C38.7544 2.57872 38.2616 1.53116 37.5019 0.889418C36.7416 0.248985 35.8052 0 34.922 0H20.5176L20.5307 14H35.4648C36.348 14 37.2844 13.751 38.044 13.1106C38.8037 12.4695 39.2959 11.4213 39.2959 10.2182L39.2827 9.55291C39.2827 8.36419 38.8024 7.32708 38.0578 6.68403V6.68468ZM34.575 2.27484C34.987 2.27484 35.359 2.40032 35.5857 2.59114C35.8111 2.78131 35.9806 3.02049 35.9806 3.64328V4.46996C35.9806 5.09275 35.8104 5.33193 35.5857 5.52276C35.359 5.71293 34.9568 5.83905 34.5441 5.83905H23.2887V2.27419H34.575V2.27484ZM36.1278 11.4089C35.9011 11.5997 35.5292 11.7258 35.1172 11.7258H23.2874V8.11455H35.104C35.5154 8.11455 35.888 8.24002 36.114 8.43085C36.3401 8.62167 36.509 8.86085 36.509 9.48364L36.5221 10.3554C36.5221 10.9782 36.3526 11.2174 36.1272 11.4076L36.1278 11.4089Z" fill="white"/>
<path d="M17.3944 6.61476C16.6347 5.97367 15.6977 5.72469 14.8151 5.72469H4.17741C3.76604 5.72469 3.39345 5.59856 3.16739 5.40839C2.94134 5.21822 2.7718 4.97839 2.7718 4.35625V3.64459C2.7718 3.0218 2.942 2.78262 3.16739 2.59245C3.39345 2.40162 3.76604 2.2755 4.17741 2.2755H14.0417C14.4537 2.2755 14.8256 2.40162 15.0524 2.59245C15.2475 2.75713 15.3993 2.96233 15.4368 3.41717H18.2007C18.1113 2.3696 17.6487 1.46515 16.9679 0.890071C16.2076 0.248985 15.2705 0 14.388 0H3.8311C2.94791 0 2.01149 0.248985 1.25184 0.890071C0.492195 1.5305 0 2.57938 0 3.78248V4.319H0.00131427C0.0282568 5.47962 0.51388 6.48733 1.25184 7.11077C2.01215 7.75186 2.94857 8.00019 3.8311 8.00019H14.4682C14.8802 8.00019 15.2521 8.12631 15.4788 8.31648C15.6707 8.47921 15.8225 8.67722 15.8626 9.11768V10.3567C15.8626 10.9795 15.6931 11.2187 15.4677 11.4089C15.2416 11.599 14.869 11.7252 14.457 11.7252H4.17741C3.76604 11.7252 3.39345 11.599 3.16739 11.4089C2.94134 11.2187 2.7718 10.9789 2.7718 10.3567V9.92279H0.0105142L0 10.2182C0 11.4213 0.492195 12.4695 1.25184 13.1106C2.01215 13.7517 2.94857 14 3.8311 14H14.804C15.6865 14 16.6236 13.7517 17.3826 13.1106C18.1422 12.4695 18.616 11.4213 18.6351 10.2182L18.6462 9.50586C18.6462 8.30341 18.154 7.25519 17.3937 6.61411L17.3944 6.61476Z" fill="white"/>
</g>
<defs>
<clipPath id="clip0_265_125">
<rect width="78.2353" height="14" fill="white"/>
</clipPath>
</defs>
</svg>